<svg width="868" height="243" viewBox="0 0 868 243" fill="none" xmlns="http://www.w3.org/2000/svg">
<mask id="mask0_106_7753" style="mask-type:alpha" maskUnits="userSpaceOnUse" x="0" y="0" width="868" height="243">
<rect width="867.413" height="243" rx="15" fill="#EAF7F3"/>
</mask>
<g mask="url(#mask0_106_7753)">
<path fill-rule="evenodd" clip-rule="evenodd" d="M48.7187 44C129.462 44 201.555 63.2088 252.5 94.4916C303.445 63.7576 375.538 44 456.281 44C611.04 44 736 115.347 736 203.707C736 337.071 419.754 473.727 252.5 533C85.2455 473.727 -231 337.071 -231 203.707C-231 115.347 -105.079 44 48.7187 44Z" fill="#EAF7F3"/>
<path fill-rule="evenodd" clip-rule="evenodd" d="M421.754 -62.3496C437.134 -62.3496 452.514 -61.3251 466.932 -59.7884C469.816 -52.6171 470.777 -45.4458 470.777 -38.2745C470.777 22.1693 378.499 70.8317 266.035 70.8317C250.655 70.8317 235.275 69.8072 220.857 68.2705C217.973 61.0992 217.012 53.9279 217.012 46.7566C217.012 -13.6872 308.329 -62.3496 421.754 -62.3496Z" fill="#EAF7F3"/>
</g>
</svg>
