<svg width="518" height="594" viewBox="0 0 518 594" fill="none" xmlns="http://www.w3.org/2000/svg">
<path fill-rule="evenodd" clip-rule="evenodd" d="M217 210.176C279.639 210.176 335.567 237.121 375.089 281.004C414.612 237.891 470.539 210.176 533.179 210.176C653.237 210.176 750.179 310.259 750.179 434.208C750.179 621.287 504.842 812.984 375.089 896.13C245.337 812.984 0 621.287 0 434.208C0 310.259 97.6872 210.176 217 210.176Z" fill="#069E5C"/>
<path fill-rule="evenodd" clip-rule="evenodd" d="M504.842 0C516.773 0 528.704 1.53974 539.89 3.84935C542.127 14.6275 542.873 25.4057 542.873 36.1839C542.873 127.029 471.285 200.166 384.038 200.166C372.106 200.166 360.175 198.627 348.99 196.317C346.753 185.539 346.007 174.761 346.007 163.982C346.007 73.1377 416.849 0 504.842 0Z" fill="#069E5C"/>
</svg>
