<svg width="24" height="24" viewBox="0 0 24 24" fill="none" xmlns="http://www.w3.org/2000/svg">
<path d="M2.5 12C2.5 6.75549 6.74679 2.5 11.99 2.5C17.2442 2.5 21.5 6.75647 21.5 12C21.5 17.2435 17.2442 21.5 11.99 21.5C6.74679 21.5 2.5 17.2445 2.5 12ZM3.5 12C3.5 16.6961 7.30386 20.5 12 20.5C16.6961 20.5 20.5 16.6961 20.5 12C20.5 7.30386 16.6961 3.5 12 3.5C7.30386 3.5 3.5 7.30386 3.5 12Z" fill="#31374C" stroke="#169566"/>
<path d="M12 12.25V12.5347L12.2449 12.68L16.3096 15.0918L16.0816 15.4658L11.5 12.7169V7.5H12V12.25Z" fill="#31374C" stroke="#169566"/>
</svg>
