<svg width="868" height="456" viewBox="0 0 868 456" fill="none" xmlns="http://www.w3.org/2000/svg">
<mask id="mask0_1_1901" style="mask-type:alpha" maskUnits="userSpaceOnUse" x="0" y="0" width="868" height="456">
<rect width="867.413" height="456" rx="15" fill="#EAF7F3"/>
</mask>
<g mask="url(#mask0_1_1901)">
<path fill-rule="evenodd" clip-rule="evenodd" d="M50.7187 145.418C131.462 145.418 203.555 179.061 254.5 233.851C305.445 180.022 377.538 145.418 458.281 145.418C613.04 145.418 738 270.378 738 425.137C738 658.716 421.754 898.063 254.5 1001.88C87.2455 898.063 -229 658.716 -229 425.137C-229 270.378 -103.079 145.418 50.7187 145.418Z" fill="#EAF7F3"/>
<path fill-rule="evenodd" clip-rule="evenodd" d="M421.755 -117C437.134 -117 452.514 -115.078 466.933 -112.194C469.816 -98.7366 470.778 -85.2793 470.778 -71.8221C470.778 41.6033 378.499 132.92 266.035 132.92C250.655 132.92 235.276 130.998 220.857 128.114C217.973 114.657 217.012 101.2 217.012 87.7425C217.012 -25.6829 308.329 -117 421.755 -117Z" fill="#EAF7F3"/>
</g>
</svg>
