<svg width="35" height="35" viewBox="0 0 35 35" fill="none" xmlns="http://www.w3.org/2000/svg">
    <circle cx="18" cy="18" r="15.45" stroke="#169566" stroke-width="1.1"/>
    <mask id="path-2-inside-1_1_10" fill="white">
        <path fill-rule="evenodd" clip-rule="evenodd" d="M9.7514 10.7514C7.4162 13.0866 7.4162 16.8727 9.7514 19.2079L18.2511 27.7076L18.2581 27.7005L18.2652 27.7076L26.7649 19.2079C29.1001 16.8727 29.1001 13.0866 26.7649 10.7514C24.4297 8.4162 20.6436 8.4162 18.3084 10.7514L18.2581 10.8017L18.2079 10.7514C15.8727 8.4162 12.0866 8.4162 9.7514 10.7514Z"/>
    </mask>
    <path d="M9.7514 19.2079L10.5292 18.4301L9.7514 19.2079ZM9.7514 10.7514L10.5292 11.5292L9.7514 10.7514ZM18.2511 27.7076L17.4733 28.4854L18.2511 29.2633L19.0289 28.4853L18.2511 27.7076ZM18.2581 27.7005L19.036 26.9227L18.2581 26.1448L17.4803 26.9227L18.2581 27.7005ZM18.2652 27.7076L17.4874 28.4854L18.2652 29.2632L19.043 28.4854L18.2652 27.7076ZM26.7649 19.2079L27.5427 19.9857V19.9857L26.7649 19.2079ZM26.7649 10.7514L27.5427 9.97358V9.97358L26.7649 10.7514ZM18.3084 10.7514L19.0862 11.5292L19.0862 11.5292L18.3084 10.7514ZM18.2581 10.8017L17.4803 11.5795L18.2581 12.3573L19.036 11.5795L18.2581 10.8017ZM18.2079 10.7514L18.9857 9.97358L18.9857 9.97358L18.2079 10.7514ZM10.5292 18.4301C8.62359 16.5245 8.6236 13.4348 10.5292 11.5292L8.97358 9.97358C6.20881 12.7384 6.20881 17.2209 8.97358 19.9857L10.5292 18.4301ZM19.0289 26.9298L10.5292 18.4301L8.97358 19.9857L17.4733 28.4854L19.0289 26.9298ZM17.4803 26.9227L17.4732 26.9298L19.0289 28.4853L19.036 28.4783L17.4803 26.9227ZM17.4803 28.4783L17.4874 28.4854L19.043 26.9298L19.036 26.9227L17.4803 28.4783ZM19.043 28.4854L27.5427 19.9857L25.9871 18.4301L17.4874 26.9298L19.043 28.4854ZM27.5427 19.9857C30.3075 17.2209 30.3075 12.7384 27.5427 9.97358L25.9871 11.5292C27.8927 13.4348 27.8927 16.5245 25.9871 18.4301L27.5427 19.9857ZM27.5427 9.97358C24.7779 7.20881 20.2954 7.20881 17.5306 9.97358L19.0862 11.5292C20.9918 9.6236 24.0815 9.62359 25.9871 11.5292L27.5427 9.97358ZM17.5306 9.97358L17.4803 10.0238L19.036 11.5795L19.0862 11.5292L17.5306 9.97358ZM17.4301 11.5292L17.4803 11.5795L19.036 10.0238L18.9857 9.97358L17.4301 11.5292ZM10.5292 11.5292C12.4348 9.6236 15.5245 9.62359 17.4301 11.5292L18.9857 9.97358C16.2209 7.20881 11.7384 7.20881 8.97358 9.97358L10.5292 11.5292Z" fill="#169566" mask="url(#path-2-inside-1_1_10)"/>
</svg>
