<svg width="34" height="39" viewBox="0 0 34 39" fill="none" xmlns="http://www.w3.org/2000/svg">
<path fill-rule="evenodd" clip-rule="evenodd" d="M16.6846 17.6089C16.0875 17.6089 15.5568 17.2772 15.2914 16.7796C13.9978 14.4245 12.6047 12.766 9.65251 12.7992C6.26916 12.7992 3.5492 15.5192 3.5492 18.9025C3.5492 24.4419 11.51 31.0428 16.6846 34.5588C21.8259 31.0428 29.8199 24.4419 29.8199 18.9025C29.8199 15.5192 27.1 12.7992 23.7166 12.7992C20.7977 12.766 19.3714 14.4577 18.0777 16.7796C17.8124 17.2772 17.2816 17.6089 16.6846 17.6089ZM9.65251 9.25C12.4388 9.25 14.9266 10.411 16.6846 12.3017C18.4426 10.4441 20.9304 9.25 23.7166 9.25C29.057 9.25 33.3692 13.5621 33.3692 18.9025C33.3692 26.9629 22.4562 35.2222 16.6846 38.8046C10.913 35.2222 0 26.9629 0 18.9025C0 13.5621 4.34529 9.25 9.65251 9.25Z" fill="#37CC50"/>
<path fill-rule="evenodd" clip-rule="evenodd" d="M22.4564 0.195312C22.9871 0.195312 23.5178 0.261653 24.0153 0.361163C24.1149 0.825545 24.148 1.28993 24.148 1.75431C24.148 5.66839 20.9637 8.81955 17.0828 8.81955C16.5521 8.81955 16.0213 8.75321 15.5238 8.6537C15.4243 8.18932 15.3911 7.72493 15.3911 7.26055C15.3911 3.34648 18.5423 0.195312 22.4564 0.195312Z" fill="#37CC50"/>
</svg>
