<svg width="193" height="59" viewBox="0 0 193 59" fill="none" xmlns="http://www.w3.org/2000/svg">
<path fill-rule="evenodd" clip-rule="evenodd" d="M25.3272 26.3606C24.4208 26.3606 23.6152 25.8585 23.2124 25.1053C21.2486 21.5402 19.1338 19.0296 14.6525 19.0798C9.51657 19.0798 5.38769 23.1972 5.38769 28.3189C5.38769 36.7045 17.4722 46.6968 25.3272 52.0194C33.1317 46.6968 45.2666 36.7045 45.2666 28.3189C45.2666 23.1972 41.1377 19.0798 36.0018 19.0798C31.5708 19.0296 29.4057 21.5904 27.4419 25.1053C27.0391 25.8585 26.2335 26.3606 25.3272 26.3606ZM14.6525 13.707C18.8821 13.707 22.6585 15.4645 25.3272 18.3266C27.9958 15.5147 31.7722 13.707 36.0018 13.707C44.1085 13.707 50.6543 20.2347 50.6543 28.3189C50.6543 40.5206 34.0884 53.0236 25.3272 58.4466C16.5659 53.0236 0 40.5206 0 28.3189C0 20.2347 6.59614 13.707 14.6525 13.707Z" fill="#37CC50"/>
<path fill-rule="evenodd" clip-rule="evenodd" d="M34.0883 0C34.8939 0 35.6996 0.100426 36.4549 0.251064C36.6059 0.954043 36.6563 1.65702 36.6563 2.36C36.6563 8.28511 31.8225 13.0553 25.9312 13.0553C25.1256 13.0553 24.32 12.9549 23.5647 12.8043C23.4136 12.1013 23.3633 11.3983 23.3633 10.6953C23.3633 4.77021 28.1467 0 34.0883 0Z" fill="#37CC50"/>
<mask id="mask0_1_1071" style="mask-type:luminance" maskUnits="userSpaceOnUse" x="23" y="0" width="14" height="14">
<path d="M34.0883 0C34.8939 0 35.6996 0.100426 36.4549 0.251064C36.6059 0.954043 36.6563 1.65702 36.6563 2.36C36.6563 8.28511 31.8225 13.0553 25.9312 13.0553C25.1256 13.0553 24.32 12.9549 23.5647 12.8043C23.4136 12.1013 23.3633 11.3983 23.3633 10.6953C23.3633 4.77021 28.1467 0 34.0883 0Z" fill="white"/>
</mask>
<g mask="url(#mask0_1_1071)">
<path fill-rule="evenodd" clip-rule="evenodd" d="M23.5645 12.8032L36.4546 0.25L43.6046 2.50957L35.9511 10.6943L26.4849 14.6109L23.5645 12.8032Z" fill="#169566"/>
</g>
<path fill-rule="evenodd" clip-rule="evenodd" d="M87.7641 41.0249H94.9645V13.207H87.7641V41.0249ZM67.2708 30.6309L70.6947 22.1449L74.1187 30.6309H67.2708ZM98.3884 25.8104H103.323L104.229 14.7134H98.3884V25.8104ZM120.292 20.287C117.975 20.4377 115.861 21.5423 114.451 23.1994V20.9398H107.704V41.0249H114.451V29.8777C114.652 28.07 116.163 26.5636 118.026 26.4632C120.04 26.3628 121.651 27.8692 121.651 29.8777V41.0249H128.398V29.8777C128.6 28.07 130.06 26.5636 131.873 26.4632C133.786 26.3628 135.347 27.8692 135.347 29.8777V41.0249H142.144V27.7687V27.6683C142.144 23.35 138.469 20.036 133.937 20.2368C131.168 20.3875 128.7 21.8436 127.24 23.9023C125.83 21.5926 123.262 20.0862 120.292 20.287ZM152.618 29.1747H161.631C161.077 27.0155 159.264 25.4087 157.099 25.4087C154.984 25.4087 153.172 27.0155 152.618 29.1747ZM157.149 20.2368C160.573 20.2368 163.695 21.7432 165.76 24.1534C168.177 26.9653 168.529 29.2249 167.975 32.9909H164.098H161.983H152.97C154.581 36.4053 159.717 36.556 162.638 34.447L166.213 38.0121C164.249 40.4726 161.178 42.0292 157.754 42.0292C151.661 42.0292 146.525 37.1585 146.374 31.1832C146.223 25.1075 151.006 20.2368 157.149 20.2368ZM185.8 29.0241V33.1917C185.095 34.9492 183.584 36.2045 181.772 36.2045C179.355 36.2045 177.391 33.9449 177.391 31.133C177.391 28.3211 179.355 26.0615 181.772 26.0615C183.584 26.0113 185.095 27.2666 185.8 29.0241ZM185.8 41.0249H193V13.207H185.8V22.4462C184.088 21.0904 182.023 20.2368 179.808 20.2368C174.37 20.2368 170.04 25.1075 170.191 31.0828C170.342 37.0581 174.873 41.9287 180.362 41.9287C182.426 41.9287 184.289 41.2258 185.85 40.0709V41.0249H185.8ZM55.438 41.0249H63.0915L65.1056 36.0036H76.2838L78.2979 41.0249H85.9514L74.2697 14.7134H73.7158H67.6736H67.1197L55.438 41.0249Z" fill="#169566"/>
<path d="M189.375 55.7375C190.13 55.7375 190.784 55.4865 191.238 54.9843C191.691 54.4822 191.943 53.8294 191.943 52.9758C191.943 52.1724 191.691 51.5196 191.238 51.0175C190.784 50.5154 190.18 50.3145 189.425 50.3145C188.972 50.3145 188.519 50.415 188.065 50.6158C187.612 50.8167 187.26 51.1179 187.008 51.4694V54.432C187.26 54.8337 187.612 55.135 188.015 55.3358C188.468 55.6371 188.921 55.7375 189.375 55.7375ZM185.951 58.9009V49.5613H187.008V50.3648C187.612 49.7622 188.468 49.4609 189.526 49.4609C190.583 49.4609 191.439 49.8124 192.043 50.4652C192.698 51.1179 193 52.0218 193 53.1265C193 54.2813 192.698 55.1852 192.043 55.8379C191.389 56.4907 190.533 56.8422 189.475 56.8422C188.418 56.8422 187.612 56.5409 187.008 55.8882V59.0013H185.951V58.9009ZM184.692 49.5613V50.5154H182.225V56.5911H181.167V50.5154H178.7V49.5613H184.692ZM176.434 49.5613H177.491V56.6413H176.434V53.8796H172.104V56.6413H171.046V49.5613H172.104V52.9256H176.434V49.5613ZM165.961 50.3648C165.306 50.3648 164.752 50.5656 164.299 50.9171C163.846 51.3188 163.544 51.8209 163.443 52.4737H168.428C168.378 51.8209 168.126 51.3188 167.673 50.9171C167.32 50.5656 166.716 50.3648 165.961 50.3648ZM169.586 53.1265V53.4277H163.443C163.544 54.1809 163.796 54.7333 164.299 55.1852C164.803 55.5869 165.407 55.8379 166.162 55.8379C167.169 55.8379 167.975 55.4865 168.579 54.7835L169.334 55.386C168.629 56.3401 167.572 56.792 166.112 56.792C165.004 56.792 164.098 56.4405 163.393 55.7877C162.688 55.135 162.386 54.2311 162.386 53.1265C162.386 52.0218 162.738 51.1179 163.393 50.4652C164.047 49.8124 164.903 49.4609 165.961 49.4609C167.119 49.4609 168.025 49.8124 168.68 50.4652C169.284 51.0677 169.586 51.9716 169.586 53.1265ZM160.422 55.6371H161.53V58.4992H160.523V56.5911H154.128V49.5111H155.185V55.5869H159.415V49.5111H160.472V55.6371H160.422ZM148.337 49.4609H148.891V56.6413H147.884V51.4192L142.899 56.7418H142.346V49.5613H143.353V54.7835L148.337 49.4609ZM145.669 48.5069C144.41 48.5069 143.705 47.9043 143.604 46.6992H144.41C144.511 47.352 144.914 47.7035 145.669 47.7035C146.424 47.7035 146.827 47.352 146.928 46.6992H147.733C147.633 47.9043 146.928 48.5069 145.669 48.5069ZM139.778 49.4609H140.331V56.6413H139.324V51.4192L134.34 56.7418H133.786V49.5613H134.793V54.7835L139.778 49.4609ZM132.527 56.5911H130.815L127.139 53.4779V56.5911H126.082V49.5111H127.139V53.0762L130.916 49.5111H132.376L128.448 53.1767L132.527 56.5911ZM121.55 56.7418C120.392 56.7418 119.486 56.3903 118.831 55.7375C118.177 55.0848 117.824 54.1809 117.824 53.0762C117.824 51.9716 118.177 51.0677 118.881 50.415C119.586 49.7622 120.493 49.4107 121.651 49.4107C122.255 49.4107 122.809 49.5111 123.312 49.7622C123.816 50.0133 124.269 50.3145 124.571 50.7162L123.816 51.4192C123.564 51.1179 123.262 50.8669 122.859 50.666C122.456 50.4652 122.054 50.3648 121.6 50.3648C120.795 50.3648 120.09 50.6158 119.637 51.0677C119.133 51.5699 118.881 52.1724 118.881 53.026C118.881 53.8294 119.133 54.4822 119.586 54.9843C120.09 55.4865 120.694 55.7375 121.5 55.7375C122.003 55.7375 122.406 55.6371 122.809 55.4362C123.212 55.2354 123.514 54.9843 123.766 54.683L124.521 55.386C124.219 55.7877 123.766 56.1392 123.262 56.3401C122.759 56.5911 122.154 56.7418 121.55 56.7418ZM115.155 49.5613H116.213V56.6413H115.155V53.8796H110.825V56.6413H109.768V49.5613H110.825V52.9256H115.155V49.5613ZM107.2 49.4609H107.754V56.6413H106.747V51.4192L101.762 56.7418H101.208V49.5613H102.215V54.7835L107.2 49.4609ZM98.7909 55.6371H99.8987V58.4992H98.8916V56.5911H92.4969V49.5111H93.5543V55.5869H97.7839V49.5111H98.8413V55.6371H98.7909ZM89.9289 49.4609H90.4828V56.6413H89.4758V51.4192L84.4909 56.7418H83.937V49.5613H84.9441V54.7835L89.9289 49.4609ZM76.4346 55.6371H80.5634V50.5154H77.1395V52.5239C77.0891 54.0805 76.8877 55.0848 76.4346 55.6371ZM81.5705 55.6371H82.6782V58.4992H81.6712V56.5911H75.6289V58.4992H74.6219V55.6371H75.2261C75.5282 55.386 75.7296 54.9843 75.8807 54.432C76.0317 53.8294 76.0821 53.1767 76.0821 52.4737V49.5613H81.5705V55.6371ZM70.4426 50.3648C69.7881 50.3648 69.2342 50.5656 68.781 50.9171C68.3279 51.3188 68.0257 51.8209 67.925 52.4737H72.9099C72.8595 51.8209 72.6078 51.3188 72.1546 50.9171C71.8022 50.5656 71.1979 50.3648 70.4426 50.3648ZM74.068 53.1265V53.4277H67.925C68.0257 54.1809 68.2775 54.7333 68.781 55.1852C69.2845 55.5869 69.8888 55.8379 70.6441 55.8379C71.6511 55.8379 72.4567 55.4865 73.061 54.7835L73.8162 55.386C73.1113 56.3401 72.0539 56.792 70.5937 56.792C69.4859 56.792 68.5796 56.4405 67.8747 55.7877C67.1698 55.135 66.8676 54.2311 66.8676 53.1265C66.8676 52.0218 67.2201 51.1179 67.8747 50.4652C68.5293 49.8124 69.3853 49.4609 70.4426 49.4609C71.6007 49.4609 72.5071 49.8124 73.1617 50.4652C73.7659 51.0677 74.068 51.9716 74.068 53.1265ZM64.6521 49.4609H65.206V56.5911H64.199V51.7205L61.48 55.386H61.0771L58.3581 51.7205V56.5911H57.3511V49.4609H57.9049L61.2785 54.0805L64.6521 49.4609Z" fill="#169566"/>
</svg>
