<svg width="62" height="86" viewBox="0 0 62 86" fill="none" xmlns="http://www.w3.org/2000/svg">
<path d="M1.5 30.8248C1.5 42.6427 8.74386 52.7725 19.0826 57.1975C19.1373 57.2216 19.1922 57.2448 19.2471 57.2673C19.6199 57.4242 19.9967 57.5737 20.3772 57.7156C21.8679 58.3631 22.8822 59.1037 23.6117 59.8371C24.4714 60.7015 24.9963 61.6159 25.4355 62.5262C25.5466 62.7566 25.6509 62.9835 25.7567 63.2148L25.7786 63.2627C25.8756 63.4746 25.9759 63.694 26.0771 63.905C26.2918 64.3524 26.5461 64.8397 26.8749 65.2789C27.214 65.7319 27.652 66.1614 28.2443 66.4678C28.8381 66.7748 29.497 66.9118 30.2113 66.9118C30.8994 66.9118 31.5345 66.7639 32.1035 66.4438C32.6633 66.1288 33.071 65.6966 33.3828 65.2599C33.6871 64.8339 33.9285 64.3619 34.1346 63.9304C34.2357 63.7187 34.3205 63.5345 34.4033 63.3547C34.514 63.1144 34.6211 62.8818 34.7588 62.6016C35.1891 61.7261 35.6994 60.8641 36.5101 60.0745C37.1156 59.4847 37.9238 58.9017 39.0547 58.3974C51.1456 54.8799 59.9896 43.8828 59.9896 30.8248C59.9896 14.921 46.8707 2.07422 30.7448 2.07422C14.6189 2.07422 1.5 14.921 1.5 30.8248Z" fill="white" stroke="white" stroke-width="3"/>
<path d="M58.4896 30.8248C58.4896 45.8749 46.0678 58.0754 30.7448 58.0754C15.4218 58.0754 3 45.8749 3 30.8248C3 15.7747 15.4218 3.57422 30.7448 3.57422C46.0678 3.57422 58.4896 15.7747 58.4896 30.8248Z" fill="#069E5C"/>
<path d="M39.8153 56.5018C31.812 59.1235 33.9461 65.4118 30.2113 65.4118C26.0582 65.4118 28.6106 59.1229 20.0738 55.9792C12.2963 53.1151 47.8289 53.8766 39.8153 56.5018Z" fill="#069E5C"/>
<path fill-rule="evenodd" clip-rule="evenodd" d="M31.1076 29.1188C30.6252 29.1188 30.1965 28.8556 29.9821 28.4608C28.9371 26.5921 27.8116 25.2762 25.4267 25.3025C22.6935 25.3025 20.4961 27.4607 20.4961 30.1452C20.4961 34.5405 26.9273 39.7781 31.1076 42.5679C35.261 39.7781 41.719 34.5405 41.719 30.1452C41.719 27.4607 39.5217 25.3025 36.7884 25.3025C34.4303 25.2762 33.2781 26.6184 32.233 28.4608C32.0187 28.8556 31.5899 29.1188 31.1076 29.1188ZM25.4267 22.4863C27.6776 22.4863 29.6874 23.4075 31.1076 24.9077C32.5278 23.4338 34.5375 22.4863 36.7884 22.4863C41.1027 22.4863 44.5862 25.9078 44.5862 30.1452C44.5862 36.5408 35.7702 43.0943 31.1076 45.9368C26.445 43.0943 17.6289 36.5408 17.6289 30.1452C17.6289 25.9078 21.1393 22.4863 25.4267 22.4863Z" fill="white"/>
<path fill-rule="evenodd" clip-rule="evenodd" d="M35.7702 15.2988C36.1989 15.2988 36.6277 15.3515 37.0296 15.4304C37.11 15.7989 37.1368 16.1674 37.1368 16.5358C37.1368 19.6415 34.5643 22.1418 31.4291 22.1418C31.0004 22.1418 30.5716 22.0892 30.1697 22.0102C30.0893 21.6418 30.0625 21.2733 30.0625 20.9048C30.0625 17.7992 32.6082 15.2988 35.7702 15.2988Z" fill="white"/>
<path d="M30.1899 84.4993C33.1381 84.4993 35.5742 82.145 35.5742 79.1842C35.5742 76.2235 33.1381 73.8691 30.1899 73.8691C27.2418 73.8691 24.8057 76.2235 24.8057 79.1842C24.8057 82.145 27.2418 84.4993 30.1899 84.4993Z" fill="#069E5C" stroke="white" stroke-width="3"/>
</svg>
