<svg width="24" height="24" viewBox="0 0 24 24" fill="none" xmlns="http://www.w3.org/2000/svg">
<path d="M17.46 4.5H16.9926L16.9611 4.96637C16.9034 5.82255 16.7593 6.65715 16.5297 7.45111L16.4477 7.73476L16.6564 7.94355L17.8564 9.14355L18.4238 9.71086L18.6831 8.95166C19.1072 7.71058 19.3759 6.39767 19.4688 5.03401L19.5053 4.5H18.97H17.46ZM7.95207 16.665L7.74491 16.4595L7.46414 16.5388C6.64765 16.7694 5.8118 16.9135 4.96599 16.9712L4.5 17.0029V17.47V18.96V19.4953L5.03401 19.4588C6.3978 19.3659 7.70905 19.0973 8.95694 18.6847L9.73083 18.4289L9.15207 17.855L7.95207 16.665ZM7.72684 15.4148L7.74143 15.4099L7.7557 15.4042C7.76085 15.4022 7.77323 15.3982 7.79571 15.395C7.8182 15.3918 7.84591 15.39 7.88 15.39C8.00601 15.39 8.13232 15.4366 8.24162 15.5387L10.4364 17.7336L10.6939 17.991L11.018 17.825C13.9405 16.3276 16.3373 13.9418 17.8256 11.0168L17.9903 10.6932L17.7336 10.4364L15.5336 8.23645C15.3918 8.09469 15.3508 7.90216 15.4061 7.72278C15.7919 6.55367 16 5.30213 16 4C16 3.72614 16.2261 3.5 16.5 3.5H20C20.2739 3.5 20.5 3.72614 20.5 4C20.5 13.1139 13.1139 20.5 4 20.5C3.72614 20.5 3.5 20.2739 3.5 20V16.51C3.5 16.2361 3.72614 16.01 4 16.01C5.29341 16.01 6.55636 15.8014 7.72684 15.4148Z" fill="#31374C" stroke="#169566"/>
</svg>
