<svg width="24" height="24" viewBox="0 0 24 24" fill="none" xmlns="http://www.w3.org/2000/svg">
<path d="M11.6552 20.0621L12 20.3905L12.3448 20.0621C13.4111 19.0465 14.9351 17.4217 16.1967 15.6248C17.4428 13.85 18.5 11.8151 18.5 10C18.5 6.42386 15.5761 3.5 12 3.5C8.42386 3.5 5.5 6.42386 5.5 10C5.5 11.8641 6.55582 13.8982 7.80426 15.6637C9.06681 17.4491 10.5913 19.0488 11.6552 20.0621ZM4.5 10C4.5 5.87614 7.87614 2.5 12 2.5C16.1239 2.5 19.5 5.87614 19.5 10C19.5 12.5154 17.8518 15.2724 16.0719 17.5004C14.5406 19.4172 12.9938 20.8465 12.4967 21.3058C12.465 21.3351 12.4375 21.3605 12.4146 21.3818C12.2556 21.4521 12.0766 21.5 12 21.5C11.9234 21.5 11.7444 21.4521 11.5854 21.3818C11.5625 21.3605 11.535 21.3351 11.5033 21.3058C11.0062 20.8465 9.45944 19.4172 7.92815 17.5004C6.14819 15.2724 4.5 12.5154 4.5 10ZM8.5 10C8.5 8.07614 10.0761 6.5 12 6.5C13.9239 6.5 15.5 8.07614 15.5 10C15.5 11.9239 13.9239 13.5 12 13.5C10.0761 13.5 8.5 11.9239 8.5 10ZM9.5 10C9.5 11.3761 10.6239 12.5 12 12.5C13.3761 12.5 14.5 11.3761 14.5 10C14.5 8.62386 13.3761 7.5 12 7.5C10.6239 7.5 9.5 8.62386 9.5 10Z" fill="#169566" stroke="#169566"/>
</svg>
