<svg width="428" height="225" viewBox="0 0 428 225" fill="none" xmlns="http://www.w3.org/2000/svg">
<mask id="mask0_1_1845" style="mask-type:alpha" maskUnits="userSpaceOnUse" x="0" y="0" width="428" height="225">
<rect width="428" height="225" rx="15" fill="#EAF7F3"/>
</mask>
<g mask="url(#mask0_1_1845)">
<path fill-rule="evenodd" clip-rule="evenodd" d="M307.5 77.543C339.974 77.543 368.969 91.0739 389.459 113.11C409.948 91.4605 438.943 77.543 471.417 77.543C533.66 77.543 583.917 127.801 583.917 190.043C583.917 283.986 456.727 380.249 389.459 422.002C322.191 380.249 195 283.986 195 190.043C195 127.801 245.644 77.543 307.5 77.543Z" fill="#D7F1E8"/>
<path fill-rule="evenodd" clip-rule="evenodd" d="M456.727 -28C462.913 -28 469.098 -27.2268 474.897 -26.067C476.057 -20.6546 476.444 -15.2423 476.444 -9.8299C476.444 35.7886 439.33 72.5154 394.098 72.5154C387.913 72.5154 381.727 71.7422 375.928 70.5824C374.768 65.1701 374.382 59.7577 374.382 54.3453C374.382 8.72679 411.109 -28 456.727 -28Z" fill="#D7F1E8"/>
</g>
</svg>
