<svg width="30" height="30" viewBox="0 0 30 30" fill="none" xmlns="http://www.w3.org/2000/svg">
<rect width="30" height="30" rx="8" fill="#7D51A0"/>
<path fill-rule="evenodd" clip-rule="evenodd" d="M19.6761 5.62902C16.53 4.92574 13.2673 4.92574 10.1211 5.62902L9.78213 5.70402C8.89714 5.90188 8.08434 6.34121 7.434 6.97319C6.78366 7.60517 6.32124 8.40507 6.09813 9.28402C5.30062 12.4265 5.30062 15.7185 6.09813 18.861C6.3109 19.6993 6.74153 20.4664 7.34636 21.0846C7.95119 21.7027 8.70871 22.15 9.54213 22.381L10.0071 25.157C10.022 25.2452 10.0602 25.3277 10.1178 25.3961C10.1753 25.4645 10.2502 25.5162 10.3346 25.5458C10.4189 25.5754 10.5096 25.5818 10.5973 25.5645C10.685 25.5471 10.7664 25.5065 10.8331 25.447L13.5641 23.004C15.6142 23.1291 17.6717 22.9652 19.6761 22.517L20.0161 22.442C20.9011 22.2442 21.7139 21.8048 22.3643 21.1729C23.0146 20.5409 23.477 19.741 23.7001 18.862C24.4975 15.7195 24.4975 12.4276 23.7001 9.28502C23.4769 8.40594 23.0144 7.60595 22.3638 6.97396C21.7133 6.34197 20.9003 5.90272 20.0151 5.70502L19.6761 5.62902ZM10.9651 9.20302C10.7793 9.17597 10.5898 9.21338 10.4281 9.30902H10.4141C10.0391 9.52902 9.70113 9.80602 9.41313 10.132C9.17313 10.409 9.04313 10.689 9.00913 10.959C8.98913 11.119 9.00313 11.281 9.05013 11.434L9.06813 11.444C9.33813 12.237 9.69013 13 10.1201 13.718C10.6746 14.7265 11.3569 15.6592 12.1501 16.493L12.1741 16.527L12.2121 16.555L12.2351 16.582L12.2631 16.606C13.0999 17.4017 14.0347 18.0872 15.0451 18.646C16.2001 19.275 16.9011 19.572 17.3221 19.696V19.702C17.4451 19.74 17.5571 19.757 17.6701 19.757C18.0287 19.7305 18.368 19.5848 18.6341 19.343C18.9591 19.055 19.2341 18.716 19.4481 18.339V18.332C19.6491 17.952 19.5811 17.594 19.2911 17.351C18.7086 16.8421 18.0788 16.39 17.4101 16.001C16.9621 15.758 16.5071 15.905 16.3231 16.151L15.9301 16.647C15.7281 16.893 15.3621 16.859 15.3621 16.859L15.3521 16.865C12.6211 16.168 11.8921 13.403 11.8921 13.403C11.8921 13.403 11.8581 13.027 12.1111 12.835L12.6031 12.439C12.8391 12.247 13.0031 11.793 12.7501 11.345C12.3637 10.6758 11.9126 10.0461 11.4031 9.46502C11.292 9.32827 11.1362 9.23513 10.9631 9.20202L10.9651 9.20302ZM15.5791 8.00102C15.4465 8.00102 15.3193 8.0537 15.2256 8.14747C15.1318 8.24124 15.0791 8.36841 15.0791 8.50102C15.0791 8.63363 15.1318 8.76081 15.2256 8.85458C15.3193 8.94834 15.4465 9.00102 15.5791 9.00102C16.8441 9.00102 17.8941 9.41402 18.7251 10.206C19.1521 10.639 19.4851 11.152 19.7031 11.714C19.9221 12.277 20.0221 12.878 19.9961 13.48C19.9934 13.5457 20.0036 13.6112 20.0262 13.673C20.0487 13.7347 20.0832 13.7913 20.1277 13.8397C20.2176 13.9374 20.3425 13.9955 20.4751 14.001C20.6077 14.0066 20.7371 13.9593 20.8348 13.8694C20.9325 13.7796 20.9906 13.6546 20.9961 13.522C21.0271 12.7815 20.9042 12.0426 20.6351 11.352C20.3649 10.6582 19.9551 10.0271 19.4311 9.49802L19.4211 9.48802C18.3901 8.50302 17.0851 8.00102 15.5791 8.00102ZM15.5451 9.64502C15.4125 9.64502 15.2853 9.6977 15.1916 9.79147C15.0978 9.88524 15.0451 10.0124 15.0451 10.145C15.0451 10.2776 15.0978 10.4048 15.1916 10.4986C15.2853 10.5923 15.4125 10.645 15.5451 10.645H15.5621C16.4741 10.71 17.1381 11.014 17.6031 11.513C18.0801 12.027 18.3271 12.666 18.3081 13.456C18.3051 13.5886 18.3548 13.717 18.4464 13.8129C18.5381 13.9089 18.664 13.9645 18.7966 13.9675C18.9292 13.9706 19.0576 13.9208 19.1535 13.8292C19.2495 13.7376 19.3051 13.6116 19.3081 13.479C19.3321 12.442 18.9981 11.547 18.3361 10.833V10.831C17.6591 10.105 16.7301 9.72102 15.6121 9.64602L15.5951 9.64402L15.5451 9.64502ZM15.5261 11.32C15.4592 11.3141 15.3918 11.3218 15.3279 11.3425C15.264 11.3632 15.2049 11.3966 15.1542 11.4407C15.1035 11.4847 15.0622 11.5385 15.0328 11.5989C15.0033 11.6593 14.9864 11.725 14.9829 11.7921C14.9794 11.8592 14.9894 11.9263 15.0124 11.9894C15.0354 12.0525 15.0709 12.1103 15.1168 12.1594C15.1626 12.2085 15.2179 12.2478 15.2793 12.2751C15.3407 12.3023 15.407 12.3169 15.4741 12.318C15.8921 12.34 16.1591 12.466 16.3271 12.635C16.4961 12.805 16.6221 13.078 16.6451 13.505C16.6464 13.5721 16.6611 13.6383 16.6885 13.6996C16.7158 13.7608 16.7553 13.816 16.8044 13.8617C16.8535 13.9074 16.9113 13.9428 16.9744 13.9657C17.0375 13.9886 17.1045 13.9986 17.1716 13.995C17.2386 13.9915 17.3042 13.9744 17.3645 13.945C17.4248 13.9155 17.4785 13.8742 17.5226 13.8236C17.5666 13.7729 17.5999 13.7139 17.6206 13.6501C17.6413 13.5862 17.649 13.5189 17.6431 13.452C17.6111 12.852 17.4231 12.322 17.0381 11.932C16.6511 11.542 16.1241 11.352 15.5261 11.32Z" fill="white"/>
</svg>
