<svg width="42" height="42" viewBox="0 0 42 42" fill="none" xmlns="http://www.w3.org/2000/svg">
<rect width="42" height="42" rx="8" fill="#169566"/>
<path fill-rule="evenodd" clip-rule="evenodd" d="M19.9503 28.4309H21.6474C21.6474 28.4309 22.1685 28.3759 22.4216 28.1148C22.6598 27.8811 22.6598 27.4275 22.6598 27.4275C22.6598 27.4275 22.63 25.3107 23.687 25.0083C24.7291 24.7059 26.0839 27.0426 27.4982 27.9498C28.5701 28.6371 29.3889 28.4859 29.3889 28.4859L33.2001 28.4309C33.2001 28.4309 35.195 28.3209 34.2422 26.8777C34.1678 26.754 33.6914 25.8055 31.4136 23.8537C29.0316 21.8056 29.3442 22.1355 32.2175 18.6029C33.9742 16.4449 34.6739 15.1253 34.4506 14.5618C34.272 14.0257 32.9768 14.1631 32.9768 14.1631L28.6892 14.1906C28.6892 14.1906 28.3765 14.1494 28.1383 14.2869C27.915 14.4106 27.7662 14.713 27.7662 14.713C27.7662 14.713 27.0813 16.3762 26.1881 17.8057C24.2825 20.8022 23.5084 20.9534 23.1957 20.7747C22.4662 20.3348 22.6449 19.029 22.6449 18.1081C22.6449 15.2078 23.1213 13.9982 21.7219 13.6821C21.2604 13.5721 20.9179 13.5034 19.7269 13.5034C18.1935 13.4896 16.8983 13.5034 16.1688 13.8333C15.6776 14.0532 15.3054 14.548 15.5287 14.5755C15.8115 14.6167 16.4517 14.7405 16.7941 15.1666C17.2407 15.7164 17.211 16.9535 17.211 16.9535C17.211 16.9535 17.4641 20.3623 16.6155 20.7884C16.0349 21.0771 15.2458 20.486 13.5487 17.7644C12.6703 16.3624 12.0153 14.8229 12.0153 14.8229C12.0153 14.8229 11.8962 14.5343 11.658 14.3831C11.39 14.1906 11.0029 14.1357 11.0029 14.1357L6.92375 14.1631C6.92375 14.1631 6.31336 14.1769 6.09005 14.4243C5.89652 14.6442 6.07517 15.0978 6.07517 15.0978C6.07517 15.0978 9.26108 21.9843 12.8787 25.4619C16.1986 28.6371 19.9503 28.4309 19.9503 28.4309Z" fill="white"/>
</svg>
