<svg width="30" height="30" viewBox="0 0 30 30" fill="none" xmlns="http://www.w3.org/2000/svg">
<rect width="30" height="30" rx="8" fill="#25D366"/>
<path d="M15.001 5C20.524 5 25.001 9.477 25.001 15C25.001 20.523 20.524 25 15.001 25C13.2338 25.0029 11.4976 24.5352 9.97099 23.645L5.00499 25L6.35699 20.032C5.46608 18.5049 4.99804 16.768 5.00099 15C5.00099 9.477 9.47799 5 15.001 5ZM11.593 10.3L11.393 10.308C11.2635 10.3159 11.137 10.3499 11.021 10.408C10.9125 10.4694 10.8135 10.5462 10.727 10.636C10.607 10.749 10.539 10.847 10.466 10.942C10.0961 11.4229 9.89696 12.0133 9.89999 12.62C9.90199 13.11 10.03 13.587 10.23 14.033C10.639 14.935 11.312 15.89 12.2 16.775C12.414 16.988 12.624 17.202 12.85 17.401C13.9534 18.3725 15.2682 19.073 16.69 19.447L17.258 19.534C17.443 19.544 17.628 19.53 17.814 19.521C18.1052 19.506 18.3896 19.4271 18.647 19.29C18.7779 19.2225 18.9057 19.1491 19.03 19.07C19.03 19.07 19.073 19.042 19.155 18.98C19.29 18.88 19.373 18.809 19.485 18.692C19.568 18.606 19.64 18.505 19.695 18.39C19.773 18.227 19.851 17.916 19.883 17.657C19.907 17.459 19.9 17.351 19.897 17.284C19.893 17.177 19.804 17.066 19.707 17.019L19.125 16.758C19.125 16.758 18.255 16.379 17.723 16.137C17.6673 16.1127 17.6077 16.0988 17.547 16.096C17.4786 16.089 17.4094 16.0967 17.3442 16.1186C17.279 16.1405 17.2193 16.1761 17.169 16.223C17.164 16.221 17.097 16.278 16.374 17.154C16.3325 17.2098 16.2753 17.2519 16.2098 17.2751C16.1443 17.2982 16.0733 17.3013 16.006 17.284C15.9408 17.2665 15.877 17.2445 15.815 17.218C15.691 17.166 15.648 17.146 15.563 17.11C14.9891 16.8595 14.4577 16.5211 13.988 16.107C13.862 15.997 13.745 15.877 13.625 15.761C13.2316 15.3842 12.8887 14.958 12.605 14.493L12.546 14.398C12.5036 14.3342 12.4694 14.2653 12.444 14.193C12.406 14.046 12.505 13.928 12.505 13.928C12.505 13.928 12.748 13.662 12.861 13.518C12.971 13.378 13.064 13.242 13.124 13.145C13.242 12.955 13.279 12.76 13.217 12.609C12.937 11.925 12.647 11.244 12.349 10.568C12.29 10.434 12.115 10.338 11.956 10.319C11.902 10.313 11.848 10.307 11.794 10.303C11.6597 10.2963 11.5251 10.2977 11.391 10.307L11.592 10.299L11.593 10.3Z" fill="white"/>
</svg>
