<svg width="42" height="42" viewBox="0 0 42 42" fill="none" xmlns="http://www.w3.org/2000/svg">
<rect width="42" height="42" rx="8" fill="#169566"/>
<path d="M34.0651 14.8897C33.7464 13.5175 32.6469 12.5004 31.3084 12.3552C28.1534 12 24.9505 12 21.7636 12C18.5767 12 15.3738 12 12.2029 12.3552C10.8643 12.5166 9.76486 13.5175 9.44617 14.8897C9 16.8592 9 18.9901 9 21.0081C9 23.026 9 25.1569 9.44617 27.1103C9.76486 28.4825 10.8643 29.4996 12.2029 29.6448C15.3579 30 18.5608 30 21.7477 30C24.9346 30 28.1374 30 31.2925 29.6448C32.631 29.4996 33.7305 28.4825 34.0492 27.1103C34.4953 25.1569 34.4953 23.0099 34.4953 21.0081C34.5113 18.9901 34.5113 16.8592 34.0651 14.8897ZM19.0866 24.5274V17.3596L25.8269 20.9435L19.0866 24.5274Z" fill="white"/>
</svg>
