<svg width="30" height="30" viewBox="0 0 30 30" fill="none" xmlns="http://www.w3.org/2000/svg">
<rect width="30" height="30" rx="8" fill="#FF433C"/>
<path d="M23.7101 10.9265C23.4976 10.0117 22.7646 9.33363 21.8723 9.23677C19.7689 9 17.6337 9 15.5091 9C13.3845 9 11.2492 9 9.13523 9.23677C8.2429 9.34439 7.50991 10.0117 7.29745 10.9265C7 12.2395 7 13.6601 7 15.0054C7 16.3507 7 17.7713 7.29745 19.0735C7.50991 19.9883 8.2429 20.6664 9.13523 20.7632C11.2386 21 13.3738 21 15.4984 21C17.6231 21 19.7583 21 21.8617 20.7632C22.754 20.6664 23.487 19.9883 23.6994 19.0735C23.9969 17.7713 23.9969 16.3399 23.9969 15.0054C24.0075 13.6601 24.0075 12.2395 23.7101 10.9265ZM13.7244 17.3516V12.5731L18.2179 14.9623L13.7244 17.3516Z" fill="white"/>
</svg>
